<svg xmlns="http://www.w3.org/2000/svg" version="1.1" xmlns:xlink="http://www.w3.org/1999/xlink" xmlns:svgjs="http://svgjs.dev/svgjs" width="1000" height="151" viewBox="0 0 1000 151"><g transform="matrix(1,0,0,1,-0.6060606060606233,-0.25147386365559043)"><svg viewBox="0 0 396 60" data-background-color="#001f3f" preserveAspectRatio="xMidYMid meet" height="151" width="1000" xmlns="http://www.w3.org/2000/svg" xmlns:xlink="http://www.w3.org/1999/xlink"><defs></defs><g id="tight-bounds" transform="matrix(1,0,0,1,0.2400000000000091,0.09992338953202307)"><svg viewBox="0 0 395.52 59.800153220935925" height="59.800153220935925" width="395.52"><g><svg viewBox="0 0 538.8205751673441 81.466305" height="59.800153220935925" width="395.52"><g><rect width="6.752845857192001" height="81.466305" x="118.8701223541522" y="0" fill="#fdc23e" opacity="1" stroke-width="0" stroke="transparent" fill-opacity="1" class="rect-si-0" data-fill-palette-color="primary" rx="1%" id="si-0" data-palette-color="#fdc23e"></rect></g><g transform="matrix(1,0,0,1,143.3005751673442,0.20265249999999924)"><svg viewBox="0 0 395.52 81.061" height="81.061" width="395.52"><g><svg viewBox="0 0 395.52 81.061" height="81.061" width="395.52"><g><svg viewBox="0 0 395.52 81.061" height="81.061" width="395.52"><g transform="matrix(1,0,0,1,0,0)"><svg width="395.52" viewBox="1.5999999999999996 -35.24999999999999 192 36.3510867484698" height="81.061" data-palette-color="#fdc23e"><svg></svg><g class="undefined-text-0" data-fill-palette-color="primary" id="text-0"><path d="M13.95 1c-3.133 0-5.833-0.86-8.1-2.58-2.267-1.713-3.683-3.953-4.25-6.72v0l3.45-1.5c0.467 2.067 1.523 3.75 3.17 5.05 1.653 1.3 3.597 1.95 5.83 1.95v0c2.333 0 4.243-0.677 5.73-2.03 1.48-1.347 2.22-3.087 2.22-5.22v0c0-1.1-0.217-2.027-0.65-2.78-0.433-0.747-1.183-1.453-2.25-2.12-1.067-0.667-2.583-1.4-4.55-2.2v0c-3.333-1.367-5.733-2.793-7.2-4.28-1.467-1.48-2.2-3.22-2.2-5.22v0c0-1.6 0.427-3.06 1.28-4.38 0.847-1.313 2.003-2.347 3.47-3.1 1.467-0.747 3.1-1.12 4.9-1.12v0c1.567 0 2.99 0.283 4.27 0.85 1.287 0.567 2.307 1.34 3.06 2.32 0.747 0.987 1.12 2.063 1.12 3.23v0c0 1.433-0.467 2.6-1.4 3.5-0.933 0.9-2.117 1.35-3.55 1.35v0c-0.433 0-0.767-0.017-1-0.05v0l0.3-3.4c0.2 0.067 0.35 0.1 0.45 0.1v0c0.333 0 0.627-0.143 0.88-0.43 0.247-0.28 0.37-0.62 0.37-1.02v0c0-0.733-0.433-1.36-1.3-1.88-0.867-0.513-1.9-0.77-3.1-0.77v0c-1.533 0-2.867 0.45-4 1.35-1.133 0.9-1.7 1.983-1.7 3.25v0c0 1.133 0.567 2.19 1.7 3.17 1.133 0.987 2.867 1.963 5.2 2.93v0c3.567 1.467 6.133 3.027 7.7 4.68 1.567 1.647 2.35 3.637 2.35 5.97v0c0 2.1-0.533 3.993-1.6 5.68-1.067 1.68-2.523 3.003-4.37 3.97-1.853 0.967-3.93 1.45-6.23 1.45zM34.45-29.35c0-0.5-0.14-0.943-0.42-1.33-0.287-0.38-0.713-0.57-1.28-0.57v0c-0.867 0.033-1.433 0.333-1.7 0.9v0l-2.8-2c0.333-0.7 0.893-1.317 1.68-1.85 0.78-0.533 1.787-0.8 3.02-0.8v0c1.733 0 3.093 0.517 4.08 1.55 0.98 1.033 1.487 2.383 1.52 4.05v0 9.65h16.75v-14.55h4.1v34.35h-4.1v-16h-16.75v16h-4.1zM84.3 1.1c-3.3-0.033-6.26-0.81-8.88-2.33-2.613-1.513-4.66-3.58-6.14-6.2-1.487-2.613-2.23-5.57-2.23-8.87v0-1.45c0-3.167 0.76-6.077 2.28-8.73 1.513-2.647 3.58-4.743 6.2-6.29 2.613-1.553 5.47-2.33 8.57-2.33v0c3.133 0 6 0.777 8.6 2.33 2.6 1.547 4.667 3.643 6.2 6.29 1.533 2.653 2.3 5.563 2.3 8.73v0 1.45c0 3.3-0.743 6.283-2.23 8.95-1.48 2.667-3.503 4.75-6.07 6.25-2.567 1.5-5.433 2.233-8.6 2.2zM84.15-2.7c2.433 0 4.633-0.593 6.6-1.78 1.967-1.18 3.517-2.803 4.65-4.87 1.133-2.067 1.7-4.383 1.7-6.95v0-1.45c0-2.433-0.583-4.693-1.75-6.78-1.167-2.08-2.74-3.73-4.72-4.95-1.987-1.213-4.18-1.82-6.58-1.82v0c-2.367 0-4.533 0.607-6.5 1.82-1.967 1.22-3.523 2.87-4.67 4.95-1.153 2.087-1.73 4.347-1.73 6.78v0 1.45c0 2.567 0.567 4.883 1.7 6.95 1.133 2.067 2.693 3.69 4.68 4.87 1.98 1.187 4.187 1.78 6.62 1.78zM111.05-30.4c-0.867 0-1.467 0.15-1.8 0.45v0c-0.367 0.3-0.583 0.85-0.65 1.65v0l-3.75-0.05c0-2 0.617-3.533 1.85-4.6v0c1-0.9 2.467-1.35 4.4-1.35v0h11.05c2.033 0 3.8 0.473 5.3 1.42 1.5 0.953 2.65 2.253 3.45 3.9 0.8 1.653 1.2 3.497 1.2 5.53v0c0 3.633-1.05 6.373-3.15 8.22-2.1 1.853-4.85 2.78-8.25 2.78v0c-1.167 0-2.417-0.167-3.75-0.5v0-3.65c1.4 0.233 2.583 0.35 3.55 0.35v0c5 0 7.5-2.383 7.5-7.15v0c0-2.367-0.583-4.143-1.75-5.33-1.167-1.18-2.767-1.77-4.8-1.77v0h-6.3v30.55h-4.1zM141.7-30.4c-0.867 0-1.467 0.15-1.8 0.45v0c-0.367 0.3-0.583 0.85-0.65 1.65v0l-3.75-0.05c0-2 0.617-3.533 1.85-4.6v0c1-0.9 2.467-1.35 4.4-1.35v0h11.05c2.033 0 3.8 0.473 5.3 1.42 1.5 0.953 2.65 2.253 3.45 3.9 0.8 1.653 1.2 3.497 1.2 5.53v0c0 3.633-1.05 6.373-3.15 8.22-2.1 1.853-4.85 2.78-8.25 2.78v0c-1.167 0-2.417-0.167-3.75-0.5v0-3.65c1.4 0.233 2.583 0.35 3.55 0.35v0c5 0 7.5-2.383 7.5-7.15v0c0-2.367-0.583-4.143-1.75-5.33-1.167-1.18-2.767-1.77-4.8-1.77v0h-6.3v30.55h-4.1zM170.25-30.05c-0.367-0.5-0.717-0.75-1.05-0.75v0c-0.167 0-0.35 0.05-0.55 0.15v0c-0.2 0.167-0.35 0.333-0.45 0.5v0l-3.15-1.65c0.4-0.967 1.083-1.733 2.05-2.3v0c0.8-0.5 1.633-0.75 2.5-0.75v0c0.8 0 1.567 0.233 2.3 0.7 0.733 0.467 1.333 1.15 1.8 2.05v0l6.95 12.85 8.25-15.1h4.7l-10.85 19.45 0.05 14.95h-4.05l-0.15-14.85z" data-fill-palette-color="primary" fill="#fdc23e" opacity="1"></path></g></svg></g></svg></g></svg></g></svg></g><g transform="matrix(1,0,0,1,0,0.20265249999999924)"><svg viewBox="0 0 101.1925153981522 81.061" height="81.061" width="101.1925153981522"><g><svg xmlns="http://www.w3.org/2000/svg" xmlns:xlink="http://www.w3.org/1999/xlink" version="1.1" x="0" y="0" viewBox="9.224 11.142 85.12499999999999 68.19000000000001" enable-background="new 0 0 100 100" xml:space="preserve" height="81.061" width="101.1925153981522" class="icon-icon-0" data-fill-palette-color="accent" id="icon-0"><g fill="#f7fbff" data-fill-palette-color="accent"><g fill="#f7fbff" data-fill-palette-color="accent"><path d="M22.958 79.083h57.658M82.941 79.331c1.234 0 2.324-1 2.324-2.238V52.198c0.93 0.211 1.283 0.334 1.957 0.334 3.905 0 6.816-4.028 7.014-6.667l0.113-1.245h-0.098c0.005 0 0.014-0.231-0.025-0.359-0.06-0.19-0.177-0.321-0.312-0.444L84.18 11.924c-0.143-0.469-0.576-0.782-1.068-0.782H20.464c-0.493 0-0.929 0.324-1.071 0.797l-9.59 31.799c-0.224 0.151-0.399 0.336-0.479 0.603-0.03 0.107-0.018 0.279-0.018 0.279H9.224l0.091 1.246c0.199 2.638 3.128 6.646 7.035 6.646 0.674 0 1.028-0.104 1.958-0.313v24.895c0 1.238 1.091 2.238 2.326 2.238M70.611 44.62l-4.199-31.618h6.708l6.993 31.618H70.611zM47.05 44.62l1.389-31.618h6.446l1.327 31.618H47.05zM23.523 44.62l6.919-31.618h6.751L32.911 44.62H23.523zM22.957 72.521V49.557c0.93 1.638 3.045 2.978 5.306 2.978 2.572 0 4.634-1.735 5.849-3.668 1.213 1.933 3.308 3.668 5.881 3.668 2.572 0 4.684-1.735 5.896-3.668 1.213 1.933 3.332 3.668 5.906 3.668 2.572 0 4.696-1.735 5.91-3.668 1.212 1.933 3.337 3.668 5.908 3.668 2.574 0 4.699-1.735 5.914-3.668 1.213 1.933 3.209 3.668 5.783 3.668 2.262 0 4.373-1.34 5.303-2.978v22.964H22.957L22.957 72.521z" fill="#f7fbff" data-fill-palette-color="accent"></path></g></g><path d="M73 71.125C73 74.37 70.37 77 67.125 77l0 0c-3.245 0-5.875-2.63-5.875-5.875v-7.75c0-3.245 2.63-5.875 5.875-5.875l0 0C70.37 57.5 73 60.13 73 63.375V71.125z" fill="#f7fbff" data-fill-palette-color="accent"></path><path d="M58 71.125C58 74.37 55.37 77 52.125 77l0 0c-3.245 0-5.875-2.63-5.875-5.875v-7.75c0-3.245 2.63-5.875 5.875-5.875l0 0C55.37 57.5 58 60.13 58 63.375V71.125z" fill="#f7fbff" data-fill-palette-color="accent"></path><path d="M43 71.125C43 74.37 40.37 77 37.125 77l0 0c-3.245 0-5.875-2.63-5.875-5.875v-7.75c0-3.245 2.63-5.875 5.875-5.875l0 0C40.37 57.5 43 60.13 43 63.375V71.125z" fill="#f7fbff" data-fill-palette-color="accent"></path></svg><g></g></g></svg></g></svg></g></svg><rect width="395.52" height="59.800153220935925" fill="none" stroke="none" visibility="hidden"></rect></g></svg></g></svg>